<svg width="589" height="212" viewBox="0 0 589 212" fill="none" xmlns="http://www.w3.org/2000/svg">
<path d="M271.683 62.8312L271.684 62.8297L294.001 20.3811L316.5 62.8297L316.5 62.8312L339.135 105.884L293.999 191.387C289.253 182.406 284.916 174.209 280.743 166.322C270.354 146.688 260.984 128.979 248.864 105.885L271.683 62.8312Z" stroke="white"/>
<path d="M266.557 53.1765L266.557 53.1751L294.003 1.06948L321.672 53.1751L321.673 53.1765L349.436 105.884L294.001 210.699C288.147 199.64 282.8 189.555 277.658 179.854C264.92 155.826 253.432 134.155 238.568 105.885L266.557 53.1765Z" stroke="white"/>
<path d="M194.255 94.4H194.555V95H186.035V94.4H186.335C186.655 94.4 186.935 94.28 187.175 94.04C187.415 93.8 187.615 93.52 187.775 93.2C187.975 92.88 188.115 92.54 188.195 92.18C188.275 91.78 188.315 91.42 188.315 91.1V57.62H181.355C180.715 57.62 180.155 57.76 179.675 58.04C179.195 58.32 178.795 58.68 178.475 59.12C178.155 59.52 177.915 59.98 177.755 60.5C177.595 60.98 177.515 61.46 177.515 61.94H176.915V55.4H203.855V61.94H203.255C203.255 61.46 203.175 60.98 203.015 60.5C202.855 59.98 202.615 59.52 202.295 59.12C201.975 58.68 201.575 58.32 201.095 58.04C200.615 57.76 200.055 57.62 199.415 57.62H192.335V91.1C192.335 91.42 192.375 91.78 192.455 92.18C192.535 92.54 192.655 92.88 192.815 93.2C193.015 93.52 193.215 93.8 193.415 94.04C193.655 94.28 193.935 94.4 194.255 94.4ZM214.761 95.42C212.761 95.42 210.961 95.1 209.361 94.46C207.761 93.78 206.381 92.88 205.221 91.76C204.101 90.6 203.221 89.24 202.581 87.68C201.981 86.12 201.681 84.42 201.681 82.58C201.681 80.62 202.021 78.84 202.701 77.24C203.381 75.6 204.321 74.2 205.521 73.04C206.721 71.88 208.141 70.98 209.781 70.34C211.421 69.7 213.201 69.38 215.121 69.38C217.041 69.38 218.801 69.7 220.401 70.34C222.001 70.94 223.381 71.8 224.541 72.92C225.701 74.04 226.601 75.38 227.241 76.94C227.881 78.46 228.201 80.14 228.201 81.98C228.201 83.7 227.901 85.38 227.301 87.02C226.741 88.62 225.881 90.04 224.721 91.28C223.601 92.52 222.201 93.52 220.521 94.28C218.881 95.04 216.961 95.42 214.761 95.42ZM214.401 71.36C212.961 71.44 211.681 71.8 210.561 72.44C209.481 73.04 208.561 73.84 207.801 74.84C207.081 75.8 206.521 76.9 206.121 78.14C205.761 79.38 205.581 80.64 205.581 81.92C205.581 83.4 205.801 84.84 206.241 86.24C206.721 87.6 207.381 88.82 208.221 89.9C209.101 90.98 210.141 91.84 211.341 92.48C212.541 93.12 213.881 93.44 215.361 93.44C216.841 93.44 218.141 93.12 219.261 92.48C220.421 91.84 221.381 91.02 222.141 90.02C222.901 88.98 223.461 87.82 223.821 86.54C224.221 85.26 224.421 83.98 224.421 82.7C224.421 81.38 224.221 80.06 223.821 78.74C223.421 77.38 222.801 76.16 221.961 75.08C221.121 73.96 220.061 73.06 218.781 72.38C217.541 71.7 216.081 71.36 214.401 71.36ZM246.347 69.38C248.507 69.38 250.367 69.76 251.927 70.52C253.527 71.24 254.847 72.2 255.887 73.4C256.967 74.6 257.767 75.98 258.287 77.54C258.807 79.1 259.067 80.7 259.067 82.34C259.067 83.94 258.807 85.52 258.287 87.08C257.807 88.64 257.047 90.04 256.007 91.28C255.007 92.52 253.747 93.52 252.227 94.28C250.707 95.04 248.907 95.42 246.827 95.42C245.587 95.42 244.307 95.1 242.987 94.46C241.707 93.78 240.547 92.94 239.507 91.94V103.7C239.507 104.02 239.547 104.36 239.627 104.72C239.707 105.12 239.827 105.48 239.987 105.8C240.187 106.12 240.387 106.4 240.587 106.64C240.827 106.88 241.107 107 241.427 107V107.6H233.627V107C233.907 107 234.167 106.88 234.407 106.64C234.647 106.4 234.847 106.12 235.007 105.8C235.207 105.48 235.347 105.12 235.427 104.72C235.507 104.36 235.547 104.02 235.547 103.7V73.34C235.547 72.98 235.527 72.64 235.487 72.32C235.487 71.96 235.427 71.66 235.307 71.42C235.187 71.14 234.987 70.92 234.707 70.76C234.467 70.56 234.107 70.44 233.627 70.4V69.8H239.507V72.44C240.307 71.48 241.267 70.74 242.387 70.22C243.547 69.66 244.867 69.38 246.347 69.38ZM246.887 93.38C248.287 93.34 249.507 93.02 250.547 92.42C251.587 91.82 252.447 91.04 253.127 90.08C253.807 89.12 254.307 88.06 254.627 86.9C254.947 85.7 255.107 84.46 255.107 83.18C255.107 81.74 254.907 80.32 254.507 78.92C254.107 77.52 253.527 76.28 252.767 75.2C252.007 74.08 251.067 73.18 249.947 72.5C248.867 71.78 247.627 71.42 246.227 71.42C245.387 71.42 244.547 71.58 243.707 71.9C242.907 72.22 242.187 72.68 241.547 73.28C240.947 73.88 240.447 74.6 240.047 75.44C239.687 76.24 239.507 77.14 239.507 78.14V86C239.507 87.08 239.727 88.08 240.167 89C240.607 89.88 241.167 90.66 241.847 91.34C242.567 91.98 243.367 92.48 244.247 92.84C245.127 93.2 246.007 93.38 246.887 93.38ZM288.192 94.4H288.492V95H280.032V94.4H280.332C280.612 94.4 280.872 94.28 281.112 94.04C281.352 93.8 281.552 93.52 281.712 93.2C281.912 92.88 282.052 92.54 282.132 92.18C282.212 91.78 282.252 91.42 282.252 91.1V59.12C282.252 58.84 282.212 58.52 282.132 58.16C282.052 57.8 281.912 57.46 281.712 57.14C281.552 56.82 281.352 56.56 281.112 56.36C280.872 56.12 280.612 56 280.332 56H280.032V55.4H290.472C294.472 55.4 297.552 56.18 299.712 57.74C301.912 59.3 303.012 61.6 303.012 64.64C303.012 66.16 302.752 67.5 302.232 68.66C301.752 69.78 301.092 70.76 300.252 71.6C299.412 72.4 298.412 73.06 297.252 73.58C296.132 74.06 294.932 74.42 293.652 74.66L297.972 81.26C299.012 82.86 300.072 84.44 301.152 86C302.232 87.52 303.292 89.1 304.332 90.74C304.612 91.14 304.912 91.56 305.232 92C305.592 92.44 305.952 92.84 306.312 93.2C306.712 93.56 307.112 93.86 307.512 94.1C307.952 94.3 308.392 94.4 308.832 94.4V95H306.252C304.652 95 303.332 94.62 302.292 93.86C301.292 93.06 300.452 92.14 299.772 91.1C297.972 88.46 296.172 85.78 294.372 83.06C292.612 80.34 290.852 77.66 289.092 75.02C288.652 74.98 288.172 74.94 287.652 74.9C287.172 74.82 286.712 74.74 286.272 74.66V91.1C286.272 91.42 286.312 91.78 286.392 92.18C286.472 92.54 286.592 92.88 286.752 93.2C286.952 93.52 287.152 93.8 287.352 94.04C287.592 94.28 287.872 94.4 288.192 94.4ZM286.272 57.44V72.68H286.572C286.892 72.72 287.392 72.76 288.072 72.8C288.792 72.8 289.672 72.8 290.712 72.8C291.552 72.8 292.432 72.68 293.352 72.44C294.312 72.16 295.192 71.72 295.992 71.12C296.832 70.48 297.512 69.66 298.032 68.66C298.592 67.66 298.872 66.4 298.872 64.88C298.872 63.36 298.572 62.12 297.972 61.16C297.412 60.2 296.612 59.44 295.572 58.88C294.572 58.32 293.352 57.94 291.912 57.74C290.472 57.54 288.892 57.44 287.172 57.44H286.272ZM326.751 95V91.94L326.451 92.24C325.451 93.24 324.291 94.02 322.971 94.58C321.691 95.14 320.131 95.42 318.291 95.42C316.891 95.42 315.691 95.26 314.691 94.94C313.691 94.62 312.871 94.18 312.231 93.62C311.591 93.02 311.111 92.34 310.791 91.58C310.511 90.82 310.371 90.02 310.371 89.18C310.371 87.82 310.731 86.62 311.451 85.58C312.211 84.54 313.291 83.62 314.691 82.82C316.091 82.02 317.791 81.3 319.791 80.66C321.831 79.98 324.151 79.32 326.751 78.68C326.671 77.12 326.351 75.86 325.791 74.9C325.231 73.94 324.571 73.2 323.811 72.68C323.051 72.12 322.251 71.76 321.411 71.6C320.571 71.4 319.851 71.3 319.251 71.3C318.211 71.3 317.291 71.46 316.491 71.78C315.731 72.1 315.051 72.52 314.451 73.04C313.891 73.52 313.411 74.06 313.011 74.66C312.611 75.22 312.291 75.76 312.051 76.28H311.511V71.9C311.831 71.86 312.131 71.76 312.411 71.6C312.691 71.44 313.031 71.28 313.431 71.12C314.031 70.88 314.851 70.54 315.891 70.1C316.931 69.62 318.391 69.38 320.271 69.38C322.471 69.38 324.251 69.66 325.611 70.22C326.971 70.78 328.011 71.52 328.731 72.44C329.491 73.36 329.991 74.42 330.231 75.62C330.471 76.78 330.591 77.98 330.591 79.22V91.1C330.591 91.9 330.771 92.66 331.131 93.38C331.491 94.06 331.971 94.4 332.571 94.4V95H326.751ZM326.751 89.3V80.72L326.151 80.84C325.191 81.08 324.011 81.4 322.611 81.8C321.251 82.2 319.951 82.72 318.711 83.36C317.471 84 316.411 84.76 315.531 85.64C314.651 86.52 314.211 87.54 314.211 88.7C314.211 89.98 314.731 91.04 315.771 91.88C316.811 92.72 318.171 93.14 319.851 93.14C321.171 93.14 322.331 92.86 323.331 92.3C324.331 91.7 325.251 90.94 326.091 90.02L326.751 89.3ZM344.213 71.84V86.3C344.213 87.34 344.233 88.28 344.273 89.12C344.313 89.96 344.413 90.66 344.573 91.22C344.733 91.78 344.973 92.22 345.293 92.54C345.613 92.82 346.053 92.96 346.613 92.96C347.453 92.96 348.233 92.56 348.953 91.76C349.713 90.96 350.193 90 350.393 88.88H350.933V93.26C350.573 93.26 350.273 93.38 350.033 93.62C349.713 93.9 349.253 94.2 348.653 94.52C348.093 94.84 347.233 95 346.073 95C344.633 95 343.513 94.72 342.713 94.16C341.913 93.6 341.333 92.86 340.973 91.94C340.613 91.02 340.393 90 340.313 88.88C340.273 87.76 340.253 86.62 340.253 85.46V71.84H336.893V69.8H340.253V64.46C340.253 63.78 340.153 63.16 339.953 62.6C339.793 62 339.213 61.68 338.213 61.64V61.04L344.213 59.12V69.8H350.933V71.84H344.213ZM358.742 82.88C358.902 84.28 359.242 85.62 359.762 86.9C360.282 88.14 360.962 89.24 361.802 90.2C362.682 91.16 363.742 91.94 364.982 92.54C366.222 93.1 367.662 93.38 369.302 93.38C370.182 93.38 371.102 93.26 372.062 93.02C373.062 92.74 373.982 92.36 374.822 91.88C375.662 91.4 376.402 90.82 377.042 90.14C377.722 89.42 378.182 88.62 378.422 87.74H378.962V92.24C378.722 92.24 378.442 92.32 378.122 92.48C377.842 92.64 377.502 92.84 377.102 93.08C376.302 93.56 375.222 94.08 373.862 94.64C372.502 95.16 370.702 95.42 368.462 95.42C366.662 95.42 364.942 95.16 363.302 94.64C361.702 94.12 360.282 93.32 359.042 92.24C357.802 91.16 356.802 89.78 356.042 88.1C355.322 86.42 354.962 84.42 354.962 82.1C354.962 80.62 355.202 79.12 355.682 77.6C356.202 76.08 356.962 74.72 357.962 73.52C359.002 72.28 360.322 71.28 361.922 70.52C363.522 69.76 365.442 69.38 367.682 69.38C369.682 69.38 371.422 69.72 372.902 70.4C374.422 71.08 375.662 72.02 376.622 73.22C377.622 74.42 378.362 75.84 378.842 77.48C379.322 79.12 379.562 80.92 379.562 82.88H358.742ZM367.442 71.36C366.042 71.36 364.822 71.64 363.782 72.2C362.782 72.76 361.922 73.48 361.202 74.36C360.482 75.24 359.922 76.24 359.522 77.36C359.122 78.48 358.862 79.6 358.742 80.72H375.842C375.802 79.56 375.582 78.42 375.182 77.3C374.822 76.18 374.302 75.18 373.622 74.3C372.942 73.42 372.082 72.72 371.042 72.2C370.002 71.64 368.802 71.36 367.442 71.36ZM403.643 95V92.36C402.963 93.12 402.043 93.82 400.883 94.46C399.763 95.1 398.343 95.42 396.623 95.42C394.503 95.42 392.643 95.06 391.043 94.34C389.483 93.58 388.183 92.6 387.143 91.4C386.103 90.2 385.323 88.84 384.803 87.32C384.323 85.76 384.083 84.16 384.083 82.52C384.083 80.92 384.343 79.34 384.863 77.78C385.383 76.18 386.163 74.76 387.203 73.52C388.243 72.28 389.543 71.28 391.103 70.52C392.663 69.76 394.463 69.38 396.503 69.38C397.863 69.38 399.203 69.64 400.523 70.16C401.843 70.64 402.883 71.28 403.643 72.08V60.38C403.643 59.7 403.543 59.06 403.343 58.46C403.143 57.86 402.563 57.54 401.603 57.5V56.9L407.603 55.04V91.1C407.603 91.42 407.643 91.78 407.723 92.18C407.803 92.54 407.923 92.88 408.083 93.2C408.243 93.52 408.443 93.8 408.683 94.04C408.923 94.28 409.203 94.4 409.523 94.4V95H403.643ZM397.043 93.44C397.883 93.44 398.703 93.28 399.503 92.96C400.303 92.6 401.003 92.14 401.603 91.58C402.203 90.98 402.683 90.3 403.043 89.54C403.443 88.74 403.643 87.88 403.643 86.96V78.74C403.643 77.62 403.403 76.62 402.923 75.74C402.443 74.82 401.843 74.04 401.123 73.4C400.403 72.76 399.603 72.28 398.723 71.96C397.883 71.6 397.063 71.42 396.263 71.42C394.943 71.42 393.763 71.74 392.723 72.38C391.683 72.98 390.803 73.78 390.083 74.78C389.363 75.74 388.823 76.84 388.463 78.08C388.103 79.28 387.923 80.48 387.923 81.68C387.923 83.08 388.123 84.48 388.523 85.88C388.923 87.24 389.503 88.48 390.263 89.6C391.063 90.68 392.023 91.58 393.143 92.3C394.263 93.02 395.563 93.4 397.043 93.44ZM151.419 152.4H151.719C152.039 152.4 152.319 152.3 152.559 152.1C152.799 151.86 152.999 151.58 153.159 151.26C153.359 150.94 153.499 150.6 153.579 150.24C153.699 149.88 153.759 149.54 153.759 149.22V117.12C153.759 116.84 153.699 116.52 153.579 116.16C153.499 115.8 153.359 115.46 153.159 115.14C152.999 114.82 152.799 114.56 152.559 114.36C152.319 114.12 152.039 114 151.719 114H151.419V113.4H174.519V118.98H173.919C173.839 118.06 173.479 117.26 172.839 116.58C172.199 115.86 171.199 115.5 169.839 115.5H157.779V130.68H167.739C168.659 130.68 169.419 130.4 170.019 129.84C170.659 129.28 170.979 128.62 170.979 127.86H171.579V135.36H170.979C170.979 134.64 170.679 134.02 170.079 133.5C169.479 132.98 168.699 132.72 167.739 132.72H157.779V150.9H170.919C171.679 150.9 172.339 150.72 172.899 150.36C173.459 150 173.919 149.58 174.279 149.1C174.679 148.58 174.959 148.04 175.119 147.48C175.319 146.88 175.419 146.38 175.419 145.98H176.019V153H151.419V152.4ZM195.96 152.4C196.72 152.4 197.1 152.12 197.1 151.56C197.1 151.36 196.86 150.92 196.38 150.24L190.38 141.96L184.14 150.42C184.02 150.58 183.88 150.8 183.72 151.08C183.56 151.36 183.48 151.6 183.48 151.8C183.48 152.2 183.7 152.4 184.14 152.4V153H178.5V152.4C179.06 152.4 179.66 152.18 180.3 151.74C180.94 151.26 181.48 150.7 181.92 150.06L189.18 140.22L182.46 131.1C182.26 130.86 182.02 130.58 181.74 130.26C181.5 129.94 181.2 129.64 180.84 129.36C180.52 129.08 180.18 128.86 179.82 128.7C179.5 128.5 179.2 128.4 178.92 128.4V127.8H187.68V128.4C187.44 128.4 187.18 128.48 186.9 128.64C186.66 128.8 186.54 129.1 186.54 129.54C186.54 129.82 186.66 130.1 186.9 130.38L191.76 137.1L196.38 130.98C196.7 130.58 196.9 130.26 196.98 130.02C197.06 129.78 197.1 129.56 197.1 129.36C197.1 129.12 197.02 128.9 196.86 128.7C196.74 128.5 196.54 128.4 196.26 128.4V127.8H202.02V128.4C201.38 128.4 200.78 128.72 200.22 129.36C199.66 129.96 199.16 130.54 198.72 131.1L192.9 138.84L200.94 149.7C201.46 150.42 202.08 151.06 202.8 151.62C203.52 152.14 204.18 152.4 204.78 152.4V153H195.96V152.4ZM221.269 127.38C223.429 127.38 225.289 127.76 226.849 128.52C228.449 129.24 229.769 130.2 230.809 131.4C231.889 132.6 232.689 133.98 233.209 135.54C233.729 137.1 233.989 138.7 233.989 140.34C233.989 141.94 233.729 143.52 233.209 145.08C232.729 146.64 231.969 148.04 230.929 149.28C229.929 150.52 228.669 151.52 227.149 152.28C225.629 153.04 223.829 153.42 221.749 153.42C220.509 153.42 219.229 153.1 217.909 152.46C216.629 151.78 215.469 150.94 214.429 149.94V161.7C214.429 162.02 214.469 162.36 214.549 162.72C214.629 163.12 214.749 163.48 214.909 163.8C215.109 164.12 215.309 164.4 215.509 164.64C215.749 164.88 216.029 165 216.349 165V165.6H208.549V165C208.829 165 209.089 164.88 209.329 164.64C209.569 164.4 209.769 164.12 209.929 163.8C210.129 163.48 210.269 163.12 210.349 162.72C210.429 162.36 210.469 162.02 210.469 161.7V131.34C210.469 130.98 210.449 130.64 210.409 130.32C210.409 129.96 210.349 129.66 210.229 129.42C210.109 129.14 209.909 128.92 209.629 128.76C209.389 128.56 209.029 128.44 208.549 128.4V127.8H214.429V130.44C215.229 129.48 216.189 128.74 217.309 128.22C218.469 127.66 219.789 127.38 221.269 127.38ZM221.809 151.38C223.209 151.34 224.429 151.02 225.469 150.42C226.509 149.82 227.369 149.04 228.049 148.08C228.729 147.12 229.229 146.06 229.549 144.9C229.869 143.7 230.029 142.46 230.029 141.18C230.029 139.74 229.829 138.32 229.429 136.92C229.029 135.52 228.449 134.28 227.689 133.2C226.929 132.08 225.989 131.18 224.869 130.5C223.789 129.78 222.549 129.42 221.149 129.42C220.309 129.42 219.469 129.58 218.629 129.9C217.829 130.22 217.109 130.68 216.469 131.28C215.869 131.88 215.369 132.6 214.969 133.44C214.609 134.24 214.429 135.14 214.429 136.14V144C214.429 145.08 214.649 146.08 215.089 147C215.529 147.88 216.089 148.66 216.769 149.34C217.489 149.98 218.289 150.48 219.169 150.84C220.049 151.2 220.929 151.38 221.809 151.38ZM242.668 140.88C242.828 142.28 243.168 143.62 243.688 144.9C244.208 146.14 244.888 147.24 245.728 148.2C246.608 149.16 247.668 149.94 248.908 150.54C250.148 151.1 251.588 151.38 253.228 151.38C254.108 151.38 255.028 151.26 255.988 151.02C256.988 150.74 257.908 150.36 258.748 149.88C259.588 149.4 260.328 148.82 260.968 148.14C261.648 147.42 262.108 146.62 262.348 145.74H262.888V150.24C262.648 150.24 262.368 150.32 262.048 150.48C261.768 150.64 261.428 150.84 261.028 151.08C260.228 151.56 259.148 152.08 257.788 152.64C256.428 153.16 254.628 153.42 252.388 153.42C250.588 153.42 248.868 153.16 247.228 152.64C245.628 152.12 244.208 151.32 242.968 150.24C241.728 149.16 240.728 147.78 239.968 146.1C239.248 144.42 238.888 142.42 238.888 140.1C238.888 138.62 239.128 137.12 239.608 135.6C240.128 134.08 240.888 132.72 241.888 131.52C242.928 130.28 244.248 129.28 245.848 128.52C247.448 127.76 249.368 127.38 251.608 127.38C253.608 127.38 255.348 127.72 256.828 128.4C258.348 129.08 259.588 130.02 260.548 131.22C261.548 132.42 262.288 133.84 262.768 135.48C263.248 137.12 263.488 138.92 263.488 140.88H242.668ZM251.368 129.36C249.968 129.36 248.748 129.64 247.708 130.2C246.708 130.76 245.848 131.48 245.128 132.36C244.408 133.24 243.848 134.24 243.448 135.36C243.048 136.48 242.788 137.6 242.668 138.72H259.768C259.728 137.56 259.508 136.42 259.108 135.3C258.748 134.18 258.228 133.18 257.548 132.3C256.868 131.42 256.008 130.72 254.968 130.2C253.928 129.64 252.728 129.36 251.368 129.36ZM283.129 132.18C282.649 131.38 282.149 130.88 281.629 130.68C281.109 130.48 280.509 130.38 279.829 130.38C279.389 130.38 278.909 130.48 278.389 130.68C277.909 130.88 277.429 131.14 276.949 131.46C276.469 131.78 275.989 132.14 275.509 132.54C275.069 132.9 274.689 133.24 274.369 133.56V149.16C274.369 149.48 274.409 149.82 274.489 150.18C274.569 150.54 274.689 150.9 274.849 151.26C275.049 151.58 275.249 151.86 275.449 152.1C275.689 152.3 275.969 152.4 276.289 152.4V153H268.489V152.4C268.769 152.4 269.029 152.3 269.269 152.1C269.509 151.86 269.709 151.58 269.869 151.26C270.069 150.9 270.209 150.54 270.289 150.18C270.369 149.82 270.409 149.48 270.409 149.16V132.42C270.409 131.86 270.229 131.3 269.869 130.74C269.509 130.18 268.989 129.82 268.309 129.66V129.18L274.369 127.38V130.98C274.729 130.54 275.109 130.12 275.509 129.72C275.909 129.28 276.349 128.9 276.829 128.58C277.349 128.22 277.909 127.94 278.509 127.74C279.109 127.5 279.809 127.38 280.609 127.38C281.169 127.38 281.889 127.5 282.769 127.74C283.649 127.98 284.369 128.24 284.929 128.52L283.129 132.18ZM289.544 153V152.4C289.864 152.4 290.144 152.28 290.384 152.04C290.624 151.8 290.824 151.52 290.984 151.2C291.144 150.88 291.264 150.54 291.344 150.18C291.424 149.78 291.464 149.42 291.464 149.1V132.48C291.464 131.8 291.364 131.16 291.164 130.56C290.964 129.92 290.384 129.58 289.424 129.54V129L295.424 127.08V149.1C295.424 149.42 295.464 149.78 295.544 150.18C295.624 150.54 295.744 150.88 295.904 151.2C296.064 151.52 296.264 151.8 296.504 152.04C296.744 152.28 297.024 152.4 297.344 152.4V153H289.544ZM289.844 121.32C289.844 120.52 290.104 119.84 290.624 119.28C291.184 118.72 291.864 118.44 292.664 118.44C293.464 118.44 294.144 118.72 294.704 119.28C295.264 119.84 295.544 120.52 295.544 121.32C295.544 122.12 295.264 122.78 294.704 123.3C294.144 123.82 293.464 124.08 292.664 124.08C291.864 124.08 291.184 123.82 290.624 123.3C290.104 122.78 289.844 122.12 289.844 121.32ZM307.063 140.88C307.223 142.28 307.563 143.62 308.083 144.9C308.603 146.14 309.283 147.24 310.123 148.2C311.003 149.16 312.063 149.94 313.303 150.54C314.543 151.1 315.983 151.38 317.623 151.38C318.503 151.38 319.423 151.26 320.383 151.02C321.383 150.74 322.303 150.36 323.143 149.88C323.983 149.4 324.723 148.82 325.363 148.14C326.043 147.42 326.503 146.62 326.743 145.74H327.283V150.24C327.043 150.24 326.763 150.32 326.443 150.48C326.163 150.64 325.823 150.84 325.423 151.08C324.623 151.56 323.543 152.08 322.183 152.64C320.823 153.16 319.023 153.42 316.783 153.42C314.983 153.42 313.263 153.16 311.623 152.64C310.023 152.12 308.603 151.32 307.363 150.24C306.123 149.16 305.123 147.78 304.363 146.1C303.643 144.42 303.283 142.42 303.283 140.1C303.283 138.62 303.523 137.12 304.003 135.6C304.523 134.08 305.283 132.72 306.283 131.52C307.323 130.28 308.643 129.28 310.243 128.52C311.843 127.76 313.763 127.38 316.003 127.38C318.003 127.38 319.743 127.72 321.223 128.4C322.743 129.08 323.983 130.02 324.943 131.22C325.943 132.42 326.683 133.84 327.163 135.48C327.643 137.12 327.883 138.92 327.883 140.88H307.063ZM315.763 129.36C314.363 129.36 313.143 129.64 312.103 130.2C311.103 130.76 310.243 131.48 309.523 132.36C308.803 133.24 308.243 134.24 307.843 135.36C307.443 136.48 307.183 137.6 307.063 138.72H324.163C324.123 137.56 323.903 136.42 323.503 135.3C323.143 134.18 322.623 133.18 321.943 132.3C321.263 131.42 320.403 130.72 319.363 130.2C318.323 129.64 317.123 129.36 315.763 129.36ZM357.004 149.1C357.004 149.42 357.044 149.78 357.124 150.18C357.204 150.54 357.324 150.88 357.484 151.2C357.684 151.52 357.884 151.8 358.084 152.04C358.324 152.28 358.604 152.4 358.924 152.4V153H351.184V152.4C351.464 152.4 351.724 152.28 351.964 152.04C352.204 151.8 352.404 151.52 352.564 151.2C352.764 150.88 352.904 150.54 352.984 150.18C353.064 149.78 353.104 149.42 353.104 149.1V137.94C353.104 136.5 352.904 135.24 352.504 134.16C352.104 133.08 351.564 132.18 350.884 131.46C350.204 130.74 349.424 130.22 348.544 129.9C347.704 129.54 346.844 129.36 345.964 129.36C345.084 129.36 344.204 129.54 343.324 129.9C342.484 130.26 341.724 130.74 341.044 131.34C340.404 131.9 339.864 132.58 339.424 133.38C339.024 134.14 338.824 134.94 338.824 135.78V149.1C338.824 149.42 338.864 149.78 338.944 150.18C339.024 150.54 339.144 150.88 339.304 151.2C339.504 151.52 339.704 151.8 339.904 152.04C340.144 152.28 340.424 152.4 340.744 152.4V153H332.944V152.4C333.224 152.4 333.484 152.28 333.724 152.04C333.964 151.8 334.164 151.52 334.324 151.2C334.524 150.88 334.664 150.54 334.744 150.18C334.824 149.78 334.864 149.42 334.864 149.1V132.54C334.864 131.86 334.764 131.22 334.564 130.62C334.364 129.98 333.784 129.64 332.824 129.6V129.06L338.824 127.14V130.44C339.104 130.12 339.464 129.78 339.904 129.42C340.344 129.02 340.864 128.66 341.464 128.34C342.104 127.98 342.824 127.7 343.624 127.5C344.464 127.26 345.444 127.14 346.564 127.14C348.444 127.14 350.044 127.46 351.364 128.1C352.684 128.74 353.764 129.58 354.604 130.62C355.444 131.62 356.044 132.74 356.404 133.98C356.804 135.18 357.004 136.36 357.004 137.52V149.1ZM386.957 150.84C386.637 150.84 386.337 150.92 386.057 151.08C385.777 151.2 385.457 151.36 385.097 151.56C384.417 151.96 383.557 152.38 382.517 152.82C381.477 153.22 380.117 153.42 378.437 153.42C376.397 153.42 374.497 153.1 372.737 152.46C371.017 151.78 369.517 150.86 368.237 149.7C366.997 148.5 366.017 147.12 365.297 145.56C364.617 143.96 364.277 142.24 364.277 140.4C364.277 138.68 364.577 137.04 365.177 135.48C365.817 133.92 366.717 132.54 367.877 131.34C369.037 130.14 370.457 129.18 372.137 128.46C373.857 127.74 375.797 127.38 377.957 127.38C379.437 127.38 380.637 127.56 381.557 127.92C382.477 128.24 383.257 128.56 383.897 128.88C384.257 129.08 384.597 129.24 384.917 129.36C385.277 129.48 385.637 129.54 385.997 129.54V134.1H385.397C385.197 133.34 384.837 132.68 384.317 132.12C383.797 131.52 383.197 131.02 382.517 130.62C381.837 130.22 381.097 129.92 380.297 129.72C379.497 129.52 378.717 129.42 377.957 129.42C376.317 129.42 374.877 129.72 373.637 130.32C372.397 130.88 371.377 131.64 370.577 132.6C369.777 133.52 369.177 134.58 368.777 135.78C368.377 136.98 368.177 138.22 368.177 139.5C368.177 140.98 368.417 142.44 368.897 143.88C369.377 145.28 370.057 146.54 370.937 147.66C371.857 148.78 372.957 149.68 374.237 150.36C375.517 151.04 376.957 151.38 378.557 151.38C379.677 151.38 380.697 151.22 381.617 150.9C382.577 150.58 383.377 150.16 384.017 149.64C384.697 149.12 385.237 148.56 385.637 147.96C386.037 147.32 386.277 146.72 386.357 146.16H386.957V150.84ZM394.25 140.88C394.41 142.28 394.75 143.62 395.27 144.9C395.79 146.14 396.47 147.24 397.31 148.2C398.19 149.16 399.25 149.94 400.49 150.54C401.73 151.1 403.17 151.38 404.81 151.38C405.69 151.38 406.61 151.26 407.57 151.02C408.57 150.74 409.49 150.36 410.33 149.88C411.17 149.4 411.91 148.82 412.55 148.14C413.23 147.42 413.69 146.62 413.93 145.74H414.47V150.24C414.23 150.24 413.95 150.32 413.63 150.48C413.35 150.64 413.01 150.84 412.61 151.08C411.81 151.56 410.73 152.08 409.37 152.64C408.01 153.16 406.21 153.42 403.97 153.42C402.17 153.42 400.45 153.16 398.81 152.64C397.21 152.12 395.79 151.32 394.55 150.24C393.31 149.16 392.31 147.78 391.55 146.1C390.83 144.42 390.47 142.42 390.47 140.1C390.47 138.62 390.71 137.12 391.19 135.6C391.71 134.08 392.47 132.72 393.47 131.52C394.51 130.28 395.83 129.28 397.43 128.52C399.03 127.76 400.95 127.38 403.19 127.38C405.19 127.38 406.93 127.72 408.41 128.4C409.93 129.08 411.17 130.02 412.13 131.22C413.13 132.42 413.87 133.84 414.35 135.48C414.83 137.12 415.07 138.92 415.07 140.88H394.25ZM402.95 129.36C401.55 129.36 400.33 129.64 399.29 130.2C398.29 130.76 397.43 131.48 396.71 132.36C395.99 133.24 395.43 134.24 395.03 135.36C394.63 136.48 394.37 137.6 394.25 138.72H411.35C411.31 137.56 411.09 136.42 410.69 135.3C410.33 134.18 409.81 133.18 409.13 132.3C408.45 131.42 407.59 130.72 406.55 130.2C405.51 129.64 404.31 129.36 402.95 129.36ZM437.813 146.16C437.813 147.2 437.553 148.16 437.033 149.04C436.513 149.92 435.793 150.7 434.873 151.38C433.993 152.02 432.953 152.54 431.753 152.94C430.553 153.3 429.253 153.48 427.853 153.48C426.133 153.48 424.733 153.26 423.653 152.82C422.573 152.34 421.653 151.86 420.893 151.38C420.373 151.06 419.893 150.8 419.453 150.6C419.013 150.36 418.533 150.24 418.013 150.24V145.68H418.613C418.733 146.24 419.073 146.86 419.633 147.54C420.233 148.18 420.933 148.78 421.733 149.34C422.573 149.9 423.473 150.38 424.433 150.78C425.433 151.14 426.433 151.32 427.433 151.32C428.153 151.32 428.893 151.24 429.653 151.08C430.413 150.92 431.093 150.66 431.693 150.3C432.333 149.94 432.853 149.5 433.253 148.98C433.693 148.42 433.913 147.76 433.913 147C433.913 146.24 433.693 145.58 433.253 145.02C432.813 144.46 432.253 143.98 431.573 143.58C430.893 143.14 430.113 142.76 429.233 142.44C428.353 142.12 427.473 141.82 426.593 141.54C425.553 141.22 424.493 140.86 423.413 140.46C422.373 140.06 421.433 139.6 420.593 139.08C419.753 138.52 419.073 137.86 418.553 137.1C418.033 136.3 417.773 135.36 417.773 134.28C417.773 133.36 417.933 132.48 418.253 131.64C418.613 130.8 419.173 130.08 419.933 129.48C420.733 128.84 421.753 128.34 422.993 127.98C424.233 127.58 425.733 127.38 427.493 127.38C429.053 127.38 430.253 127.52 431.093 127.8C431.973 128.04 432.693 128.3 433.253 128.58C433.613 128.78 433.973 128.94 434.333 129.06C434.693 129.14 435.093 129.18 435.533 129.18V133.38H435.053C434.333 132.06 433.233 131.06 431.753 130.38C430.273 129.7 428.753 129.36 427.193 129.36C426.193 129.36 425.333 129.5 424.613 129.78C423.893 130.02 423.293 130.34 422.813 130.74C422.373 131.1 422.033 131.52 421.793 132C421.593 132.48 421.493 132.96 421.493 133.44C421.493 134.12 421.673 134.7 422.033 135.18C422.433 135.66 422.953 136.08 423.593 136.44C424.273 136.8 425.013 137.14 425.813 137.46C426.653 137.78 427.533 138.08 428.453 138.36C429.573 138.72 430.693 139.12 431.813 139.56C432.933 139.96 433.933 140.46 434.813 141.06C435.693 141.66 436.413 142.38 436.973 143.22C437.533 144.02 437.813 145 437.813 146.16Z" fill="#0C0B10"/>
</svg>
